<svg width="99" height="26" viewBox="0 0 99 26" fill="none" xmlns="http://www.w3.org/2000/svg">
<g id="company_slider_logo04_eac957cc22.svg" clip-path="url(#clip0_628_9167)">
<path id="Vector" d="M56.37 8.11719C56.37 5.25619 56.419 2.592 56.57 0.125L49.018 1.55615V2.24707L49.758 2.34717C49.9685 2.34759 50.1761 2.39699 50.3644 2.49121C50.5526 2.58543 50.7165 2.72188 50.843 2.89014C51.0895 3.38368 51.2401 3.91958 51.287 4.46924C51.387 5.90024 51.487 9.15513 51.435 14.2861C51.435 19.3671 51.386 22.5741 51.287 23.8071C53.3898 24.3084 55.539 24.5895 57.7 24.646C58.9738 24.7223 60.2495 24.5338 61.4467 24.0923C62.644 23.6508 63.7367 22.966 64.656 22.0811C65.528 21.1527 66.2044 20.0587 66.6451 18.8638C67.0857 17.6688 67.2816 16.3972 67.221 15.125C67.2975 13.0318 66.6141 10.9817 65.297 9.35303C64.7187 8.63006 63.9821 8.04964 63.144 7.65625C62.3059 7.26286 61.3887 7.06697 60.463 7.08398C59.0392 7.12206 57.6414 7.47504 56.37 8.11719ZM56.518 23.311C56.418 21.732 56.318 16.997 56.318 9.25195C56.8932 9.07616 57.4927 8.99272 58.094 9.00488C58.6877 9.00822 59.268 9.18141 59.7664 9.50391C60.2649 9.8264 60.6606 10.285 60.907 10.8252C61.6462 12.2381 62.0033 13.8196 61.943 15.4131C62.0078 17.4034 61.6021 19.3809 60.759 21.1851C59.97 22.7141 58.983 23.5039 57.75 23.5039C57.3435 23.4114 56.9313 23.3467 56.516 23.3101L56.518 23.311ZM20.702 0.618164H0.969971V1.60498L2.00597 1.70508C2.65623 1.78132 3.25444 2.09827 3.68297 2.59326C4.09064 3.3146 4.29523 4.13261 4.27497 4.96094C4.67028 9.91974 4.67028 14.902 4.27497 19.8608C4.24611 20.6817 4.04438 21.4875 3.68297 22.2251C3.48509 22.4864 3.23245 22.7011 2.94276 22.8545C2.65307 23.0079 2.33334 23.0965 2.00597 23.1133L0.969971 23.2612V24.248H13.697V23.2612L12.365 23.1611C12.04 23.1338 11.724 23.0408 11.4358 22.8882C11.1476 22.7356 10.8932 22.5264 10.688 22.2729C10.2803 21.5516 10.0757 20.7336 10.096 19.9053C9.92956 17.6565 9.84716 15.4019 9.84897 13.147L12.513 13.1963C13.944 13.2453 14.93 14.331 15.424 16.501H16.411V8.46191H15.424C14.931 10.5829 13.993 11.6683 12.513 11.7183L9.84897 11.7671C9.84897 7.32709 9.94897 4.16709 10.096 2.24609H13.996C16.759 2.24609 18.633 4.02222 19.718 7.57422L20.9 7.2251L20.702 0.618164ZM18.384 15.812C18.3055 18.1274 19.0778 20.3916 20.555 22.1763C21.3414 23.0248 22.3077 23.6866 23.3831 24.1133C24.4585 24.54 25.6157 24.7206 26.77 24.6421C27.9605 24.7006 29.1496 24.5017 30.2563 24.0591C31.363 23.6164 32.3613 22.9405 33.183 22.0771C34.7663 20.3454 35.6 18.0573 35.502 15.7129C35.5805 13.3975 34.8082 11.1338 33.331 9.34912C32.5446 8.50025 31.5781 7.83801 30.5026 7.41113C29.427 6.98426 28.2695 6.80329 27.115 6.88184C25.9245 6.82328 24.7354 7.0222 23.6287 7.46484C22.522 7.90749 21.5237 8.58387 20.702 9.44727C19.1187 11.179 18.285 13.4667 18.383 15.811L18.384 15.812ZM29.384 10.188C30.0156 11.9757 30.3004 13.8678 30.223 15.7622C30.223 20.9912 29.138 23.5562 27.017 23.5562C25.9317 23.5562 25.093 22.8159 24.501 21.3359C23.8774 19.5462 23.5929 17.6562 23.662 15.7622C23.662 10.5822 24.747 8.01709 26.868 8.01709C27.954 7.96909 28.792 8.70899 29.384 10.188ZM71.07 22.1763C71.8761 22.985 72.8387 23.6208 73.8988 24.0449C74.959 24.4691 76.0945 24.6725 77.236 24.6431C78.6419 24.6785 80.0338 24.356 81.281 23.7061C82.3677 23.1999 83.3157 22.438 84.044 21.4858L83.551 20.894C82.4788 21.7223 81.1545 22.1568 79.8 22.125C78.9411 22.1812 78.0813 22.0317 77.292 21.6885C76.5026 21.3453 75.8067 20.8183 75.262 20.1519C74.1257 18.6773 73.5962 16.8244 73.782 14.9722H84.339C84.4325 12.8778 83.7865 10.817 82.514 9.15088C81.8787 8.40835 81.081 7.82196 80.1828 7.43701C79.2846 7.05206 78.3099 6.87913 77.334 6.93115C76.1383 6.8667 74.9432 7.0679 73.8344 7.52002C72.7256 7.97214 71.7307 8.66372 70.921 9.5459C69.3881 11.3045 68.5774 13.5784 68.652 15.9102C68.6046 17.0645 68.7948 18.2161 69.2107 19.2939C69.6266 20.3718 70.2595 21.353 71.07 22.1763ZM74.72 9.79395C75.263 8.60995 75.953 8.01807 76.891 8.01807C78.371 8.01807 79.111 9.89292 79.111 13.6909L73.882 13.791C73.892 12.4151 74.1773 11.055 74.721 9.79102L74.72 9.79395ZM97.609 7.8252C96.0153 7.1656 94.3013 6.84643 92.577 6.88818C90.7961 6.80307 89.0444 7.36388 87.644 8.46729C87.0592 8.92243 86.5862 9.50528 86.2614 10.1714C85.9366 10.8375 85.7685 11.569 85.77 12.3101C85.7397 12.8779 85.8246 13.4458 86.0197 13.98C86.2148 14.5141 86.5159 15.0033 86.905 15.418C87.9057 16.2981 89.083 16.9544 90.358 17.3423C91.3866 17.6519 92.3543 18.1357 93.219 18.7729C93.4677 19.0022 93.6662 19.2805 93.802 19.5903C93.9378 19.9001 94.0079 20.235 94.0079 20.5732C94.0079 20.9115 93.9378 21.2459 93.802 21.5557C93.6662 21.8655 93.4677 22.1438 93.219 22.373C92.9513 22.6467 92.6274 22.8589 92.2697 22.9951C91.912 23.1313 91.5289 23.1884 91.147 23.1621C88.976 23.1621 87.347 21.5833 86.214 18.4263L85.375 18.6729L85.575 23.606C87.4665 24.3173 89.4743 24.6688 91.495 24.6421C93.3777 24.7617 95.2431 24.2212 96.77 23.1133C97.4025 22.619 97.9072 21.98 98.242 21.2505C98.5767 20.5209 98.7317 19.7217 98.694 18.9199C98.7489 17.8676 98.4155 16.832 97.757 16.0093C96.8725 15.115 95.7915 14.4393 94.6 14.0361C93.4056 13.6667 92.2743 13.1178 91.245 12.4082C90.9652 12.194 90.7393 11.9174 90.5852 11.6006C90.431 11.2838 90.3529 10.9353 90.357 10.583C90.3262 9.91461 90.556 9.26065 90.998 8.7583C91.2081 8.52511 91.4678 8.34175 91.758 8.22217C92.0483 8.10259 92.3616 8.04942 92.675 8.06689C94.648 8.06689 96.075 9.49808 96.967 12.3091L97.806 12.062L97.609 7.8252ZM50.153 7.37695C49.4466 7.03468 48.6688 6.866 47.884 6.88428C46.9234 6.93637 46.0059 7.29934 45.27 7.91895C44.2913 8.66817 43.5394 9.67435 43.098 10.8252L43.147 6.87891L35.647 8.35889V9.05029L36.387 9.09912C37.324 9.19912 37.867 9.93802 37.966 11.27C38.2622 14.5189 38.2622 17.7882 37.966 21.0371C37.866 22.3691 37.325 23.06 36.387 23.208L35.647 23.3081V24.2451H46.108V23.3081L44.776 23.208C43.839 23.108 43.296 22.3691 43.197 21.0371C42.8907 18.0206 42.8572 14.9825 43.097 11.96C43.3272 11.6732 43.6207 11.4441 43.9546 11.29C44.2884 11.136 44.6535 11.0614 45.021 11.0723C46.1884 11.0151 47.3444 11.3254 48.326 11.96L50.151 7.37207L50.153 7.37695Z" fill="#212121"/>
</g>
<defs>
<clipPath id="clip0_628_9167">
<rect width="98" height="25" fill="white" transform="translate(0.969971 0.125)"/>
</clipPath>
</defs>
</svg>
