<svg width="50" height="50" viewBox="0 0 50 50" fill="none" xmlns="http://www.w3.org/2000/svg">
<path id="Vector" d="M25.0051 0.625C20.1525 0.625 15.4089 2.06396 11.3741 4.75991C7.33933 7.45586 4.19461 11.2877 2.3376 15.7709C0.480602 20.2541 -0.00527519 25.1873 0.941417 29.9466C1.88811 34.706 4.22485 39.0777 7.65614 42.509C11.0875 45.9403 15.4592 48.277 20.2185 49.2237C24.9779 50.1704 29.9111 49.6846 34.3943 47.8276C38.8775 45.9705 42.7093 42.8258 45.4053 38.7911C48.1012 34.7563 49.5402 30.0127 49.5402 25.1601C49.5402 18.653 46.9552 12.4124 42.354 7.81116C37.7528 3.20994 31.5122 0.625 25.0051 0.625ZM34.0554 35.8669H15.9548V33.5651C15.951 33.2715 16.0473 32.9854 16.2281 32.7539C16.4088 32.5225 16.663 32.3596 16.9488 32.2922L22.5464 30.9669V19.3184L16.9488 18.0629C16.6659 17.9961 16.4139 17.8358 16.2335 17.6079C16.0531 17.3801 15.9549 17.098 15.9548 16.8073V14.4184H34.0554V16.7376C34.0544 17.0306 33.9537 17.3146 33.7699 17.5427C33.586 17.7709 33.33 17.9298 33.044 17.9931L27.4464 19.3358V30.9843L33.044 32.3096C33.3253 32.3792 33.5756 32.5402 33.7556 32.7675C33.9355 32.9947 34.0348 33.2753 34.0379 33.5651L34.0554 35.8669Z" fill="#ED403A"/>
</svg>
