<svg width="227" height="24" viewBox="0 0 227 24" fill="none" xmlns="http://www.w3.org/2000/svg">
<path id="Vector" d="M10.7722 20.757C11.7652 20.8089 12.7548 20.9137 13.7366 21.0709C13.8366 21.6479 13.8366 22.2377 13.7366 22.8147H4.9654C5.037 22.2549 5.1715 21.7051 5.3665 21.1755C6.2118 20.9851 7.0678 20.8454 7.9298 20.757V3.14479H2.9077C2.82 4.02879 2.6861 4.90769 2.5066 5.77789C1.8991 5.90579 1.279 5.96429 0.658203 5.95229V1.24399H18.0961V6.07429C17.4626 6.07319 16.8311 6.00299 16.2128 5.86509C16.0384 4.95829 15.8989 4.12129 15.8117 3.14479H10.7722V20.757ZM24.4435 20.8791C25.2102 20.9403 25.9693 21.0746 26.7104 21.2801C26.7978 21.7762 26.7978 22.2837 26.7104 22.7798H19.3516C19.4109 22.2944 19.5525 21.8226 19.7701 21.3848C20.4121 21.1148 21.0775 20.9047 21.7581 20.757V2.18569H19.526C19.5763 1.60209 19.7678 1.03949 20.084 0.546487C20.9832 0.246487 21.9263 0.0990877 22.8741 0.110588C23.408 0.107788 23.9404 0.166287 24.4609 0.284887V6.26609C24.4609 7.53909 24.4609 8.86439 24.304 10.1373H24.6179C25.0807 9.27319 25.7864 8.56339 26.6478 8.09549C27.5092 7.62769 28.4888 7.42209 29.4656 7.50419C31.9418 7.50419 34.139 8.28889 34.139 13.0843C34.139 15.6826 34.139 18.3157 33.965 20.8442C34.805 20.9083 35.64 21.0424 36.458 21.2453C36.527 21.5603 36.563 21.8818 36.563 22.2043C36.563 22.3787 36.563 22.5531 36.563 22.7275H29.1866C29.2546 22.2417 29.4019 21.7705 29.6225 21.3325C30.1866 21.0921 30.77 20.8996 31.3663 20.757V13.5203C31.3663 11.1313 30.5991 9.61419 28.4019 9.61419C27.6411 9.65679 26.8972 9.85519 26.2163 10.1972C25.5354 10.5391 24.932 11.0173 24.4435 11.6021V20.8791ZM41.166 15.7698C41.06 17.0831 41.48 18.3849 42.334 19.3888C43.187 20.3926 44.404 21.0165 45.718 21.1232H46.206C47.689 21.0522 49.153 20.7583 50.548 20.2513C50.579 20.8585 50.44 21.4623 50.147 21.9951C48.642 22.798 46.969 23.2341 45.264 23.2681C40.835 23.2681 38.289 19.9549 38.289 15.6826C38.289 11.1313 41.114 7.50419 45.439 7.50419C49.153 7.50419 50.67 10.1897 50.67 14.0957C50.67 14.6537 50.67 15.1943 50.67 15.7349L41.166 15.7698ZM47.967 14.026C48.176 11.8811 47.566 9.28289 44.968 9.28289C42.771 9.28289 41.341 11.2011 41.149 14.026H47.967ZM59.389 22.7449C59.44 22.1851 59.564 21.6342 59.755 21.1058C60.549 20.9391 61.353 20.8226 62.162 20.757V3.31909C61.394 3.31909 60.645 3.21449 59.877 3.10989C59.792 2.53169 59.792 1.94419 59.877 1.36609H67.672C67.779 1.94239 67.779 2.53349 67.672 3.10989C66.794 3.23569 65.908 3.30559 65.021 3.31909V20.757C65.945 20.8089 66.865 20.9137 67.777 21.0709C67.869 21.465 67.91 21.8694 67.899 22.2741C67.916 22.4422 67.916 22.6117 67.899 22.7798L59.389 22.7449ZM74.944 20.8442C75.711 20.897 76.471 21.0314 77.21 21.2453C77.289 21.7421 77.289 22.2481 77.21 22.7449H69.852C69.917 22.2586 70.065 21.7869 70.288 21.3499C70.926 21.0943 71.585 20.8959 72.258 20.757V9.77109H69.991C70.041 9.18759 70.233 8.62499 70.549 8.13199C71.378 7.84059 72.251 7.69319 73.13 7.69599C73.618 7.69279 74.104 7.75139 74.577 7.87039V10.1373H74.891C75.419 9.28489 76.168 8.59149 77.058 8.13089C77.949 7.67039 78.948 7.45979 79.948 7.52169C82.39 7.52169 84.552 8.28889 84.552 13.0843C84.552 15.6826 84.552 18.3157 84.377 20.8616C85.219 20.9172 86.054 21.0515 86.871 21.2627C86.941 21.5776 86.976 21.8992 86.976 22.2218C86.976 22.3962 86.976 22.5705 86.976 22.7449H79.53C79.595 22.2586 79.743 21.7869 79.966 21.3499C80.524 21.1048 81.101 20.9065 81.692 20.757V13.5203C81.692 11.1313 80.96 9.61419 78.78 9.61419C78.033 9.66539 77.305 9.86799 76.64 10.2098C75.974 10.5516 75.385 11.0253 74.909 11.6021V20.8442H74.944ZM97.735 8.02739C97.819 8.60529 97.871 9.18739 97.892 9.77109H93.672V20.757C94.709 20.8552 95.736 21.0419 96.741 21.315C96.828 21.7877 96.828 22.2723 96.741 22.7449H88.563C88.628 22.2586 88.775 21.7869 88.998 21.3499C89.642 21.0918 90.307 20.8934 90.986 20.757V9.82349H88.545C88.582 9.27269 88.705 8.73129 88.911 8.21919C89.591 7.99069 90.284 7.80429 90.986 7.66119V5.91739C90.986 1.73229 93.515 0.075687 96.427 0.075687C97.575 0.074787 98.716 0.251187 99.81 0.598787C99.836 0.947087 99.836 1.29679 99.81 1.64509C99.814 2.56959 99.667 3.48859 99.374 4.36539C98.765 4.32859 98.17 4.16209 97.63 3.87709V1.87179C97.334 1.69459 96.999 1.59279 96.654 1.57529C95.015 1.57529 93.689 2.41239 93.689 5.60349V8.02739H97.735ZM113.429 15.1594C113.429 20.3908 110.674 23.2681 106.454 23.2681C102.234 23.2681 99.479 20.478 99.479 15.1594C99.479 10.4163 102.513 7.50419 106.454 7.50419C110.395 7.50419 113.516 10.2943 113.516 15.1594H113.429ZM106.454 21.4022C109.296 21.4022 110.656 18.9958 110.656 15.1594C110.656 11.8463 109.017 9.33519 106.454 9.33519C103.89 9.33519 102.216 11.6544 102.216 15.1594C102.216 18.926 103.821 21.4022 106.454 21.4022ZM120.875 10.8174C121.063 9.88629 121.567 9.04859 122.3 8.44509C123.034 7.84169 123.953 7.50939 124.903 7.50419C125.378 7.51609 125.848 7.59839 126.298 7.74839C126.577 8.33009 126.714 8.96939 126.699 9.61419C126.698 9.89639 126.663 10.1775 126.595 10.4512C125.955 10.0955 125.233 9.91499 124.502 9.92809C123.734 9.94969 122.99 10.2025 122.368 10.6537C121.745 11.1048 121.274 11.7331 121.014 12.4566V20.757C122.054 20.8366 123.082 21.0236 124.083 21.315C124.171 21.7877 124.171 22.2723 124.083 22.7449H115.87C115.936 22.2586 116.083 21.7869 116.306 21.3499C116.955 21.0908 117.626 20.8923 118.312 20.757V9.77109H116.045C116.079 9.18429 116.272 8.61769 116.603 8.13199C117.428 7.84759 118.293 7.70039 119.166 7.69599C119.655 7.68989 120.143 7.75449 120.613 7.88789V10.8174H120.875ZM133.657 20.8442C134.423 20.9085 135.182 21.0427 135.924 21.2453C136.011 21.7414 136.011 22.2488 135.924 22.7449H128.495C128.561 22.2586 128.708 21.7869 128.931 21.3499C129.574 21.0918 130.24 20.8934 130.919 20.757V9.77109H128.774C128.825 9.18759 129.016 8.62499 129.332 8.13199C130.155 7.83949 131.022 7.69199 131.896 7.69599C132.391 7.69039 132.884 7.75489 133.36 7.88789V10.1548H133.657C134.161 9.31559 134.883 8.62809 135.745 8.16459C136.607 7.70119 137.579 7.47909 138.557 7.52169C139.474 7.36419 140.417 7.56369 141.192 8.07929C141.967 8.59479 142.515 9.38729 142.725 10.2943C143.205 9.40649 143.927 8.67219 144.806 8.17569C145.685 7.67909 146.686 7.44029 147.694 7.48679C150.118 7.48679 152.246 8.25399 152.246 13.0495C152.246 15.6826 152.246 18.2808 152.071 20.8268C152.919 20.8837 153.759 21.018 154.582 21.2278C154.609 21.547 154.609 21.8678 154.582 22.1869C154.6 22.3609 154.6 22.5361 154.582 22.71H147.241C147.306 22.2237 147.454 21.7521 147.677 21.315C148.241 21.069 148.824 20.8707 149.421 20.7221V13.5203C149.421 11.1313 148.723 9.61419 146.578 9.61419C145.845 9.66679 145.13 9.87059 144.479 10.2127C143.827 10.5548 143.254 11.0278 142.794 11.6021V20.757C143.563 20.8156 144.323 20.9559 145.061 21.1755C145.14 21.6723 145.14 22.1784 145.061 22.6752H137.912C137.977 22.1889 138.125 21.7172 138.348 21.2801C138.906 21.0215 139.491 20.8228 140.091 20.6873V13.5203C140.091 11.1313 139.377 9.61419 137.249 9.61419C136.514 9.66049 135.797 9.86149 135.145 10.2041C134.493 10.5466 133.92 11.023 133.465 11.6021V20.8442H133.657ZM165.376 20.8442C164.939 21.5975 164.302 22.2158 163.536 22.631C162.77 23.0463 161.904 23.2426 161.034 23.1983C159.969 23.2903 158.91 22.9568 158.09 22.2706C157.27 21.5843 156.755 20.6013 156.657 19.5364C156.649 19.3737 156.649 19.2107 156.657 19.0481C156.657 15.857 159.36 14.2178 162.412 14.2178C163.396 14.2057 164.373 14.3833 165.289 14.7409V12.9972C165.289 10.7128 164.313 9.50959 162.36 9.50959C160.748 9.64159 159.192 10.1622 157.826 11.0267C157.717 10.689 157.67 10.3347 157.686 9.98039C157.676 9.44449 157.789 8.91339 158.018 8.42839C159.613 7.73049 161.333 7.36269 163.075 7.34729C166.44 7.34729 167.922 8.98639 167.922 13.2413V19.2399C167.886 19.8033 168.026 20.364 168.323 20.8442C169.051 20.8102 169.771 20.6872 170.468 20.478C170.477 20.5941 170.477 20.7107 170.468 20.8268C170.47 21.3095 170.363 21.7863 170.154 22.2218C169.12 22.7679 167.975 23.072 166.806 23.1111C166.435 22.8344 166.127 22.4809 165.905 22.0747C165.682 21.6684 165.549 21.219 165.516 20.757L165.376 20.8442ZM165.376 16.1011C164.667 15.9405 163.942 15.8587 163.214 15.857C160.808 15.857 159.447 16.9381 159.447 18.5773C159.436 18.9091 159.491 19.2399 159.609 19.5503C159.726 19.8606 159.905 20.1443 160.134 20.3847C160.363 20.6251 160.638 20.8173 160.942 20.9501C161.246 21.0829 161.574 21.1536 161.906 21.1581H162.22C162.823 21.1683 163.42 21.0363 163.962 20.7727C164.504 20.5091 164.977 20.1214 165.341 19.641V16.1534L165.376 16.1011ZM174.392 4.19099C175.043 3.88989 175.749 3.72379 176.467 3.70279V7.97499H180.948C181.015 8.55439 181.015 9.13949 180.948 9.71879H176.38V18.2459C176.38 20.2513 176.659 21.1232 178.402 21.1232C179.374 21.1024 180.34 20.9678 181.28 20.7221C181.297 20.8552 181.297 20.9901 181.28 21.1232C181.341 21.5913 181.275 22.0673 181.088 22.5008C179.883 23.0312 178.585 23.3158 177.269 23.3378C174.897 23.3378 173.677 22.03 173.677 18.8388C173.677 17.0951 173.677 13.032 173.834 9.89319H171.671C171.706 9.34219 171.83 8.80039 172.038 8.28889C172.603 8.05579 173.186 7.86919 173.781 7.73089L174.392 4.19099ZM183.738 9.70139C183.789 9.11779 183.98 8.55529 184.296 8.06219C185.197 7.76779 186.139 7.62059 187.087 7.62629C187.627 7.62009 188.167 7.68449 188.691 7.81809V20.757C189.515 20.8271 190.332 20.9671 191.132 21.1755C191.174 21.4938 191.174 21.8163 191.132 22.1346C191.15 22.3085 191.15 22.4838 191.132 22.6577H183.512C183.582 22.1725 183.729 21.7016 183.948 21.2627C184.585 21.008 185.244 20.8153 185.918 20.6873V9.77109L183.738 9.70139ZM189.144 2.48209C189.15 2.90009 189.005 3.30609 188.736 3.62609C188.467 3.94619 188.092 4.15909 187.679 4.22589H187.418C187 4.26519 186.584 4.13929 186.258 3.87529C185.932 3.61129 185.722 3.23009 185.674 2.81339C185.665 2.67409 185.665 2.53429 185.674 2.39489C185.66 2.17389 185.691 1.95239 185.764 1.74359C185.838 1.53479 185.954 1.34319 186.104 1.18019C186.253 1.01719 186.435 0.886287 186.637 0.795387C186.839 0.704487 187.057 0.655387 187.278 0.651087H187.435C187.858 0.612287 188.28 0.742887 188.606 1.01419C188.933 1.28559 189.139 1.67549 189.179 2.09849V2.34259L189.144 2.48209ZM206.861 15.0897C206.861 20.3211 204.106 23.1983 199.886 23.1983C195.666 23.1983 192.911 20.4082 192.911 15.0897C192.911 10.3466 195.945 7.43449 199.886 7.43449C203.827 7.43449 206.826 10.2943 206.826 15.1594L206.861 15.0897ZM199.886 21.3325C202.728 21.3325 204.106 18.926 204.106 15.0897C204.106 11.7765 202.467 9.26539 199.886 9.26539C197.305 9.26539 195.649 11.5847 195.649 15.0897C195.561 19.0132 197.166 21.4022 199.799 21.4022L199.886 21.3325ZM214.673 20.7744C215.441 20.8272 216.201 20.9617 216.94 21.1755C217.019 21.6723 217.019 22.1784 216.94 22.6752H209.512C209.577 22.1889 209.724 21.7172 209.948 21.2801C210.591 21.0221 211.256 20.8236 211.935 20.6873V9.77109H209.669C209.703 9.18429 209.895 8.61769 210.227 8.13199C211.049 7.83949 211.917 7.69199 212.79 7.69599C213.278 7.69279 213.764 7.75139 214.237 7.87039V10.1373H214.551C215.073 9.29569 215.811 8.60929 216.688 8.14929C217.565 7.68929 218.549 7.47259 219.538 7.52169C221.98 7.52169 224.142 8.28889 224.142 13.0843C224.142 15.6826 224.142 18.3157 223.968 20.8616C224.81 20.9172 225.644 21.0515 226.461 21.2627C226.531 21.5776 226.566 21.8992 226.566 22.2218C226.566 22.3962 226.566 22.5705 226.566 22.7449H219.225C219.29 22.2586 219.437 21.7869 219.66 21.3499C220.224 21.1039 220.807 20.9056 221.404 20.757V13.5203C221.404 11.1313 220.672 9.61419 218.492 9.61419C217.748 9.66569 217.023 9.86859 216.36 10.2104C215.697 10.5522 215.112 11.0258 214.638 11.6021L214.673 20.7744Z" fill="black"/>
</svg>
