<svg width="174" height="32" viewBox="0 0 174 32" fill="none" xmlns="http://www.w3.org/2000/svg">
<g id="press_banner_fastcompany_4ffc0b4142.svg" clip-path="url(#clip0_628_9178)">
<g id="Clip path group">
<mask id="mask0_628_9178" style="mask-type:luminance" maskUnits="userSpaceOnUse" x="0" y="0" width="174" height="32">
<g id="clip-path">
<path id="Rectangle 1925" d="M173.202 0.165039H0.987915V31.105H173.202V0.165039Z" fill="white"/>
</g>
</mask>
<g mask="url(#mask0_628_9178)">
<g id="press-banner-fastcompany">
<path id="svg_2" d="M152.478 6.47057C152.478 4.77795 153.004 4.19408 153.877 4.19408C154.751 4.19408 155.454 4.544 156.271 6.47057L161.233 17.737V24.8544C161.233 26.547 160.533 27.0139 158.605 27.2479V27.7148H167.77V27.2539C165.786 27.0199 165.143 26.495 165.143 24.8604V17.737L169.933 6.87847C170.866 4.77895 171.801 4.31005 173.202 4.07911V3.60921H166.488V4.07611C168.765 4.31005 169.583 4.95191 168.94 6.46957L164.741 16.1024L160.421 6.23662C159.837 4.89392 160.187 4.48501 162.697 4.13709V3.6682H148.275V4.13509C150.551 4.48501 151.252 4.89392 151.252 6.52855V19.7256L140.686 3.6682H135.487V4.13509C137.18 4.36904 137.706 4.89392 137.706 6.52855V24.9174C137.706 26.61 137.239 27.1939 136.655 27.1939C136.13 27.1939 135.838 26.9599 135.079 24.9174L127.259 3.55123H126.792L119.261 23.9836C118.444 26.2601 117.162 27.0189 115.875 27.3108V27.7777H122.763V27.3108C120.37 27.0769 119.611 26.1431 120.136 24.6255L121.829 19.9555H128.951L130.586 24.3335C131.285 26.3181 130.878 26.9019 128.834 27.2529V27.7198H141.911V27.2539C139.635 26.9039 138.934 26.495 138.934 24.8604V8.39613L151.719 27.7777H152.478V6.47057ZM60.2985 15.6355C60.2995 8.15818 63.8607 4.25207 68.0057 4.25207C70.4572 4.25207 72.0338 4.77795 72.9676 5.76972C73.7987 6.71679 74.4159 7.83186 74.7772 9.03898H75.2441V4.01812C73.0362 3.54803 70.7878 3.29389 68.5306 3.25929C62.284 3.25929 55.8045 7.28738 55.8045 15.6355C55.8045 23.9836 62.284 28.0117 68.1227 28.0117C70.4968 28.0077 72.8573 27.6536 75.1281 26.9609L75.828 22.232L75.4191 22.115C74.9122 23.0678 74.2841 23.9509 73.5505 24.7424C72.0639 26.2305 70.0491 27.0701 67.9458 27.0779C63.9737 27.0189 60.2985 23.2248 60.2985 15.6355ZM112.08 16.3353C111.434 16.3274 110.79 16.2689 110.153 16.1604V4.48501H112.08C115.29 4.48501 116.692 6.17763 116.692 10.3837C116.693 14.6427 115.233 16.3363 112.081 16.3363L112.08 16.3353ZM37.0658 3.60921V9.38891H37.5326C38.2325 5.71074 39.6922 4.544 42.1446 4.544H43.3123V24.8544C43.3123 26.547 42.6125 27.0139 40.6849 27.2479V27.7148H49.8499V27.2539C47.8653 27.0199 47.2225 26.495 47.2225 24.8604V4.48501H48.3902C50.8416 4.48501 52.3013 5.65275 53.0021 9.32992H53.469V3.55123H37.0658V3.60921ZM29.7674 28.0107C33.7375 28.0107 37.9406 25.7342 37.9406 21.0633C37.9365 19.7234 37.5569 18.4115 36.8449 17.2764C36.1329 16.1413 35.117 15.2286 33.9125 14.6417L29.3595 12.1323C26.966 10.7896 26.2652 9.56387 26.2652 7.81226C26.2652 5.82771 27.7249 4.25107 30.4642 4.25107C31.0376 4.21744 31.612 4.29805 32.154 4.48821C32.696 4.67837 33.1948 4.9743 33.6215 5.35882C34.6141 6.49718 35.3154 7.8596 35.6651 9.32892H36.074V4.01812C34.3481 3.5126 32.5586 3.25705 30.7602 3.25929C26.8491 3.25929 23.9297 5.71074 23.9297 9.8578C23.95 11.1722 24.3169 12.4579 24.9933 13.5851C25.6697 14.7123 26.6316 15.641 27.7819 16.2773L31.9809 18.6128C34.3744 19.9555 35.1332 21.2402 35.1332 23.1658C35.1332 25.4423 32.7977 27.0769 30.2343 27.0769C29.4825 27.1001 28.7336 26.9725 28.0318 26.7017C27.3301 26.431 26.6896 26.0224 26.1482 25.5003C25.3429 24.668 24.7257 23.6724 24.3386 22.5809H27.082V22.115C26.3232 21.9401 25.8563 21.8231 25.2134 20.3054L19.8436 7.52133H19.3768L14.1229 20.0185C13.4231 21.7111 12.9552 22.0031 12.1384 22.118V22.5849H16.8083V22.115C15.1157 21.9401 14.6488 21.1222 15.0567 20.0715L15.8735 18.0869H20.6025L21.6532 20.5384C22.1201 21.6471 21.4193 21.9381 19.7267 22.056V22.5229H23.4628V27.1349C25.5185 27.6957 27.6377 27.9904 29.7684 28.0117L29.7674 28.0107ZM89.079 27.7767L96.0264 8.45812L96.5523 24.9204C96.6103 26.554 95.9664 27.0189 93.9839 27.2539V27.7208H113.132V27.2539C110.855 26.9039 110.154 26.495 110.154 24.8604V17.0952C110.849 17.2043 111.551 17.2627 112.254 17.2701C116.866 17.2701 120.835 15.5775 120.835 10.4397C120.835 5.30183 116.868 3.60921 112.256 3.60921H104.025V4.07611C105.717 4.31005 106.243 4.83494 106.243 6.46957V24.8544C106.243 26.547 105.543 27.2479 103.616 27.2479H103.558C101.514 27.2479 100.638 26.489 100.58 24.9124L99.8805 6.52355C99.8225 4.83094 100.406 4.30506 102.216 4.07211V3.60921H96.5523L90.3677 20.9473L84.1761 3.60921H78.1045V4.07611C79.9141 4.31005 80.4979 4.89292 80.4399 6.52755L79.7981 24.1546C79.8362 24.9177 79.5781 25.666 79.0778 26.2435C78.5774 26.821 77.8735 27.1829 77.1127 27.2539V27.7208H83.5342V27.2539C83.1609 27.2282 82.7969 27.1258 82.4648 26.9532C82.1328 26.7806 81.8399 26.5415 81.6043 26.2507C81.3688 25.9599 81.1957 25.6237 81.0958 25.2631C80.9959 24.9024 80.9714 24.5251 81.0238 24.1546L81.5497 8.1002L88.6131 27.7148L89.08 27.7727L89.079 27.7767ZM70.4562 22.6979C72.3101 22.6367 74.0714 21.8729 75.383 20.5613C76.6946 19.2497 77.4584 17.4884 77.5196 15.6345C77.5196 13.761 76.7754 11.9643 75.4506 10.6396C74.1259 9.31482 72.3292 8.57059 70.4557 8.57059C68.5822 8.57059 66.7855 9.31482 65.4608 10.6396C64.136 11.9643 63.3918 13.761 63.3918 15.6345C63.4537 17.4886 64.218 19.2499 65.5298 20.5616C66.8417 21.8732 68.6031 22.6373 70.4572 22.6989L70.4562 22.6979ZM70.4562 9.56287C72.4407 9.56287 73.7834 11.1975 73.7834 15.6345C73.7834 20.1335 72.3838 21.7061 70.4562 21.7061C68.4716 21.7061 67.1289 20.0715 67.1289 15.6345C67.1299 11.1405 68.4726 9.56387 70.4572 9.56387L70.4562 9.56287ZM128.659 18.9607H122.18L125.392 10.0877L128.659 18.9607ZM20.3105 17.1561H16.3414L18.326 12.3112L20.3105 17.1561ZM12.7213 18.3819H13.1852V11.1405H12.7183C11.9594 13.7089 11.2006 14.2928 9.79892 14.2928H7.11753V4.48501H11.3796C13.831 4.48501 15.2907 5.65275 15.9915 9.32992H16.4584V3.55123H0.987915V4.01812C2.68053 4.25207 3.20641 4.77695 3.20641 6.41158V24.8004C3.20641 26.493 2.68053 26.9599 0.987915 27.1939V27.6608H10.0949V27.1939C7.81837 26.844 7.11753 26.435 7.11753 24.8004V15.1686H9.80292C11.1456 15.2266 11.9624 15.8105 12.7223 18.3789L12.7213 18.3819Z" fill="#666666"/>
</g>
</g>
</g>
</g>
<defs>
<clipPath id="clip0_628_9178">
<rect width="172.214" height="30.94" fill="white" transform="translate(0.987915 0.165039)"/>
</clipPath>
</defs>
</svg>
